<svg width="222" height="36" viewBox="0 0 222 36" fill="none" xmlns="http://www.w3.org/2000/svg">
<path d="M39.1828 12.012C39.1828 14.784 40.6108 16.436 42.4588 17.752L44.8388 19.46C46.0988 20.356 47.0228 21.392 47.0228 22.96C47.0228 24.36 46.0988 25.2 44.6428 25.2C43.2148 25.2 42.2628 24.164 42.2628 22.484V21H38.9028V22.68C38.9028 26.292 41.4788 28.28 44.6428 28.28C47.8068 28.28 50.3828 26.376 50.3828 22.54C50.3828 19.852 48.8988 18.2 47.0788 16.884L44.6148 15.12C43.4388 14.28 42.5428 13.412 42.5428 12.012C42.5428 10.584 43.3828 9.79997 44.6148 9.79997C45.9308 9.79997 46.7428 10.612 46.7428 12.404V13.72H50.1028V12.32C50.1028 8.53997 47.6668 6.71997 44.6148 6.71997C41.6188 6.71997 39.1828 8.23197 39.1828 12.012Z" fill="black"/>
<path d="M57.2527 6.99997H53.8927V28H57.2527V20.636L63.2727 28H67.4727L60.9487 20.356L67.1087 14H62.6847L57.2527 20.104V6.99997Z" fill="black"/>
<path d="M76.9207 29.456L82.2127 14H78.8527L75.3247 24.78L71.8247 14H68.4647L73.7287 29.428C72.9167 31.388 71.9367 32.312 70.3687 32.312C69.6967 32.312 69.0527 32.172 68.5207 32.004V34.972C69.0527 35.14 69.8647 35.28 70.6767 35.28C74.2327 35.28 75.7447 32.9 76.9207 29.456Z" fill="black"/>
<path d="M89.2321 28V19.32H94.6641V16.24H89.2321V10.08H95.5041V6.99997H85.8721V28H89.2321Z" fill="black"/>
<path d="M100.253 11.2C101.485 11.2 102.353 10.276 102.353 9.09997C102.353 7.89597 101.485 6.99997 100.253 6.99997C99.0487 6.99997 98.1527 7.89597 98.1527 9.09997C98.1527 10.276 99.0487 11.2 100.253 11.2ZM101.933 28V14H98.5727V28H101.933Z" fill="black"/>
<path d="M110.606 23.212V16.94H114.246V14H110.606V9.79997H107.246V14H105.006V16.94H107.246V23.436C107.246 27.188 109.262 28.28 112.034 28.28C112.846 28.28 113.742 28.112 114.246 27.944V24.948C113.77 25.116 113.182 25.2 112.706 25.2C111.25 25.2 110.606 24.584 110.606 23.212Z" fill="black"/>
<path d="M127.116 20.3V28H130.476V19.628C130.476 15.68 128.236 13.72 125.268 13.72C123.532 13.72 122.104 14.532 121.236 16.016V14H117.876V28H121.236V20.3C121.236 17.948 122.356 16.66 124.176 16.66C125.996 16.66 127.116 17.948 127.116 20.3Z" fill="black"/>
<path d="M147.667 22.12C147.695 21.756 147.723 21.392 147.723 21C147.723 16.716 144.783 13.72 140.779 13.72C136.775 13.72 133.835 16.716 133.835 21C133.835 25.284 136.775 28.28 140.779 28.28C144.083 28.28 146.519 26.712 147.359 23.8H143.719C143.271 24.78 142.403 25.34 140.919 25.34C138.847 25.34 137.503 24.164 137.139 22.12H147.667ZM140.779 16.66C142.739 16.66 144.027 17.78 144.391 19.74H137.167C137.531 17.78 138.819 16.66 140.779 16.66Z" fill="black"/>
<path d="M162.267 23.968C162.267 18.2 154.035 20.496 154.035 17.808C154.035 16.912 154.875 16.38 156.135 16.38C157.507 16.38 158.515 17.276 158.515 18.452H162.015C162.015 15.792 159.495 13.72 156.135 13.72C153.027 13.72 150.647 15.344 150.647 17.948C150.647 23.66 158.795 21.14 158.795 24.108C158.795 25.144 157.955 25.648 156.555 25.648C155.043 25.648 153.895 24.892 153.895 23.38H150.395C150.395 26.488 153.055 28.28 156.555 28.28C159.831 28.28 162.267 26.628 162.267 23.968Z" fill="black"/>
<path d="M176.936 23.968C176.936 18.2 168.704 20.496 168.704 17.808C168.704 16.912 169.544 16.38 170.804 16.38C172.176 16.38 173.184 17.276 173.184 18.452H176.684C176.684 15.792 174.164 13.72 170.804 13.72C167.696 13.72 165.316 15.344 165.316 17.948C165.316 23.66 173.464 21.14 173.464 24.108C173.464 25.144 172.624 25.648 171.224 25.648C169.712 25.648 168.564 24.892 168.564 23.38H165.064C165.064 26.488 167.724 28.28 171.224 28.28C174.5 28.28 176.936 26.628 176.936 23.968Z" fill="black"/>
<path d="M184.933 28V20.16H187.705C191.149 20.16 193.613 18.032 193.613 14.14V12.74C193.613 8.98797 191.149 6.99997 187.705 6.99997H181.573V28H184.933ZM187.425 10.08C189.161 10.08 190.253 10.892 190.253 13.02V13.86C190.253 16.156 189.161 17.08 187.425 17.08H184.933V10.08H187.425Z" fill="black"/>
<path d="M200.341 14H196.981V28H200.341V20.86C200.341 18.508 201.797 17.22 204.289 17.22C204.849 17.22 205.353 17.304 205.745 17.444V13.776C205.577 13.72 205.297 13.72 205.045 13.72C203.001 13.72 201.349 14.616 200.341 16.268V14Z" fill="black"/>
<path d="M214.72 28.28C218.808 28.28 221.86 25.284 221.86 21C221.86 16.716 218.808 13.72 214.72 13.72C210.632 13.72 207.58 16.716 207.58 21C207.58 25.284 210.632 28.28 214.72 28.28ZM214.72 25.2C212.564 25.2 210.94 23.52 210.94 21C210.94 18.48 212.564 16.8 214.72 16.8C216.876 16.8 218.5 18.48 218.5 21C218.5 23.52 216.876 25.2 214.72 25.2Z" fill="black"/>
<path d="M3.68844 28.4581C1.54195 29.698 0 28.6648 0 26.827C0 24.8705 0 19.0003 0 19.0003C0 19.0003 0 13.1301 0 11.1737C0 9.33591 1.54099 8.30269 3.68844 9.54255C7.03156 11.4731 17.06 17.2668 17.06 17.2668C18.3934 18.037 18.3934 19.9628 17.06 20.7329C17.06 20.7338 7.03156 26.5275 3.68844 28.4581Z" fill="#00C1FF"/>
<path d="M14.7265 28.4574C12.58 29.6972 11.038 28.664 11.038 26.8262C11.038 24.8698 11.038 18.9996 11.038 18.9996C11.038 18.9996 11.038 13.1294 11.038 11.173C11.038 9.33518 12.579 8.30196 14.7265 9.54182C17.9959 11.4303 27.8043 17.0968 27.8043 17.0968C29.2688 17.9425 29.2688 20.0567 27.8043 20.9024C27.8034 20.9024 17.9959 26.5689 14.7265 28.4574Z" fill="#BCEC30"/>
<mask id="mask0_38_717" style="mask-type:alpha" maskUnits="userSpaceOnUse" x="11" y="9" width="18" height="20">
<path d="M14.7265 28.4574C12.58 29.6972 11.038 28.664 11.038 26.8262C11.038 24.8698 11.038 18.9996 11.038 18.9996C11.038 18.9996 11.038 13.1294 11.038 11.173C11.038 9.33518 12.579 8.30196 14.7265 9.54182C17.9959 11.4303 27.8043 17.0968 27.8043 17.0968C29.2688 17.9425 29.2688 20.0567 27.8043 20.9024C27.8034 20.9024 17.9959 26.5689 14.7265 28.4574Z" fill="#6FE4FF"/>
</mask>
<g mask="url(#mask0_38_717)">
<g filter="url(#filter0_f_38_717)">
<path d="M3.68893 28.4584C1.54244 29.6982 0.000488281 28.665 0.000488281 26.8272C0.000488281 24.8708 0.000488281 19.0006 0.000488281 19.0006C0.000488281 19.0006 0.000488281 13.1304 0.000488281 11.1739C0.000488281 9.33615 1.54148 8.30294 3.68893 9.5428C7.03205 11.4734 17.0605 17.2671 17.0605 17.2671C18.3939 18.0372 18.3939 19.963 17.0605 20.7331C17.0605 20.7341 7.03205 26.5278 3.68893 28.4584Z" fill="#99D100"/>
</g>
</g>
<defs>
<filter id="filter0_f_38_717" x="-1.46075" y="7.53973" width="20.9825" height="22.9218" filterUnits="userSpaceOnUse" color-interpolation-filters="sRGB">
<feFlood flood-opacity="0" result="BackgroundImageFix"/>
<feBlend mode="normal" in="SourceGraphic" in2="BackgroundImageFix" result="shape"/>
<feGaussianBlur stdDeviation="0.730621" result="effect1_foregroundBlur_38_717"/>
</filter>
</defs>
</svg>
