<svg width="197" height="197" viewBox="0 0 197 197" fill="none" xmlns="http://www.w3.org/2000/svg">
<mask id="mask0_33_2014" style="mask-type:alpha" maskUnits="userSpaceOnUse" x="0" y="0" width="197" height="197">
<path d="M0 20C0 8.95431 8.95431 0 20 0L177 0C188.046 0 197 8.9543 197 20V177C197 188.046 188.046 197 177 197H20C8.95431 197 0 188.046 0 177L0 20Z" fill="#D9D9D9"/>
</mask>
<g mask="url(#mask0_33_2014)">
<path d="M0 20C0 8.95431 8.95431 0 20 0L177 0C188.046 0 197 8.9543 197 20V177C197 188.046 188.046 197 177 197H20C8.95431 197 0 188.046 0 177L0 20Z" fill="#D9D9D9"/>
<path d="M98.5 125.095C50.3529 125.095 9.22177 155.134 -7.1748 197.492H204.175C187.778 155.134 146.647 125.095 98.5 125.095Z" fill="white"/>
<path fill-rule="evenodd" clip-rule="evenodd" d="M98.0073 100.751C117.999 100.751 134.206 84.5919 134.206 64.6582C134.206 44.7244 117.999 28.5649 98.0073 28.5649C78.0153 28.5649 61.8086 44.7244 61.8086 64.6582C61.8086 84.5919 78.0153 100.751 98.0073 100.751Z" fill="white"/>
</g>
</svg>
