<svg width="26" height="26" viewBox="0 0 26 26" fill="none" xmlns="http://www.w3.org/2000/svg">
<path d="M12.4637 4.36751C12.6202 3.70443 12.6984 3.3729 12.8242 3.29823C12.9326 3.23392 13.0674 3.23392 13.1758 3.29823C13.3016 3.3729 13.3798 3.70443 13.5363 4.36751L14.2997 7.60302C14.5837 8.80636 14.7257 9.40803 15.0343 9.89596C15.3071 10.3274 15.6726 10.6929 16.104 10.9657C16.592 11.2743 17.1936 11.4163 18.397 11.7003L21.6325 12.4637C22.2956 12.6202 22.6271 12.6984 22.7018 12.8242C22.7661 12.9326 22.7661 13.0674 22.7018 13.1758C22.6271 13.3016 22.2956 13.3798 21.6325 13.5363L18.397 14.2997C17.1936 14.5837 16.592 14.7257 16.104 15.0343C15.6726 15.3071 15.3071 15.6726 15.0343 16.104C14.7257 16.592 14.5837 17.1936 14.2997 18.397L13.5363 21.6325C13.3798 22.2956 13.3016 22.6271 13.1758 22.7018C13.0674 22.7661 12.9326 22.7661 12.8242 22.7018C12.6984 22.6271 12.6202 22.2956 12.4637 21.6325L11.7003 18.397C11.4163 17.1936 11.2743 16.592 10.9657 16.104C10.6929 15.6726 10.3274 15.3071 9.89596 15.0343C9.40803 14.7257 8.80636 14.5837 7.60301 14.2997L4.36751 13.5363C3.70443 13.3798 3.3729 13.3016 3.29823 13.1758C3.23392 13.0674 3.23392 12.9326 3.29823 12.8242C3.3729 12.6984 3.70443 12.6202 4.36751 12.4637L7.60302 11.7003C8.80636 11.4163 9.40803 11.2743 9.89596 10.9657C10.3274 10.6929 10.6929 10.3274 10.9657 9.89596C11.2743 9.40803 11.4163 8.80636 11.7003 7.60301L12.4637 4.36751Z" fill="black"/>
</svg>
