<svg width="42" height="42" viewBox="0 0 42 42" fill="none" xmlns="http://www.w3.org/2000/svg">
<path fill-rule="evenodd" clip-rule="evenodd" d="M41.8333 20.9998C41.8333 32.5058 32.5059 41.8332 21 41.8332C9.49403 41.8332 0.166626 32.5058 0.166626 20.9998C0.166626 9.4939 9.49403 0.166504 21 0.166504C32.5059 0.166504 41.8333 9.4939 41.8333 20.9998ZM33.5 28.4403C33.5 31.8921 27.9035 35.5832 21 35.5832C14.0964 35.5832 8.49996 31.8921 8.49996 28.4403C8.49996 24.9885 14.0964 23.0832 21 23.0832C27.9035 23.0832 33.5 24.9885 33.5 28.4403ZM21 18.9165C24.4517 18.9165 27.25 16.1183 27.25 12.6665C27.25 9.21472 24.4517 6.4165 21 6.4165C17.5482 6.4165 14.75 9.21472 14.75 12.6665C14.75 16.1183 17.5482 18.9165 21 18.9165Z" fill="#D9D9D9"/>
</svg>
