<svg width="222.077881" height="35.280029" viewBox="0 0 222.078 35.28" fill="none" xmlns="http://www.w3.org/2000/svg" xmlns:xlink="http://www.w3.org/1999/xlink">
	<desc>
			Created with Pixso.
	</desc>
	<defs>
		<filter id="filter_38_1245_dd" x="-1.460693" y="7.539917" width="20.982422" height="22.921631" filterUnits="userSpaceOnUse" color-interpolation-filters="sRGB">
			<feFlood flood-opacity="0" result="BackgroundImageFix"/>
			<feBlend mode="normal" in="SourceGraphic" in2="BackgroundImageFix" result="shape"/>
			<feGaussianBlur stdDeviation="0.487081" result="effect_layerBlur_1"/>
		</filter>
	</defs>
	<rect id="logo" rx="-0.500000" width="219.000000" height="34.000000" transform="translate(0.500000 0.500000)" fill="#FFFFFF" fill-opacity="0"/>
	<path id="SkyFitnessPro" d="M42.67 17.75C40.82 16.43 39.4 14.78 39.4 12.01C39.4 8.23 41.83 6.71 44.83 6.71C47.88 6.71 50.32 8.53 50.32 12.31L50.32 13.72L46.96 13.72L46.96 12.4C46.96 10.61 46.14 9.79 44.83 9.79C43.6 9.79 42.76 10.58 42.76 12.01C42.76 13.41 43.65 14.28 44.83 15.12L47.29 16.88C49.11 18.2 50.6 19.85 50.6 22.53C50.6 26.37 48.02 28.28 44.86 28.28C41.69 28.28 39.12 26.29 39.12 22.67L39.12 21L42.48 21L42.48 22.48C42.48 24.16 43.43 25.2 44.86 25.2C46.31 25.2 47.24 24.36 47.24 22.96C47.24 21.39 46.31 20.35 45.05 19.45L42.67 17.75ZM54.1 7L57.47 7L57.47 20.1L62.9 14L67.32 14L61.16 20.35L67.68 28L63.49 28L57.47 20.63L57.47 28L54.1 28L54.1 7ZM89.44 19.31L89.44 28L86.08 28L86.08 7L95.72 7L95.72 10.08L89.44 10.08L89.44 16.24L94.88 16.24L94.88 19.31L89.44 19.31ZM102.57 9.09C102.57 10.27 101.7 11.2 100.47 11.2C99.26 11.2 98.36 10.27 98.36 9.09C98.36 7.89 99.26 7 100.47 7C101.7 7 102.57 7.89 102.57 9.09ZM185.15 20.15L185.15 28L181.79 28L181.79 7L187.92 7C191.36 7 193.83 8.98 193.83 12.74L193.83 14.14C193.83 18.03 191.36 20.15 187.92 20.15L185.15 20.15ZM110.82 16.93L110.82 23.21C110.82 24.58 111.46 25.2 112.92 25.2C113.39 25.2 113.98 25.11 114.46 24.94L114.46 27.94C113.95 28.11 113.06 28.28 112.25 28.28C109.47 28.28 107.46 27.18 107.46 23.43L107.46 16.93L105.22 16.93L105.22 14L107.46 14L107.46 9.79L110.82 9.79L110.82 14L114.46 14L114.46 16.93L110.82 16.93ZM190.47 13.02C190.47 10.89 189.37 10.08 187.64 10.08L185.15 10.08L185.15 17.08L187.64 17.08C189.37 17.08 190.47 16.15 190.47 13.86L190.47 13.02ZM127.33 28L127.33 20.29C127.33 17.94 126.21 16.65 124.39 16.65C122.57 16.65 121.45 17.94 121.45 20.29L121.45 28L118.09 28L118.09 14L121.45 14L121.45 16.01C122.32 14.53 123.75 13.72 125.48 13.72C128.45 13.72 130.69 15.67 130.69 19.62L130.69 28L127.33 28ZM147.94 21C147.94 21.39 147.91 21.75 147.88 22.12L137.35 22.12C137.72 24.16 139.06 25.34 141.13 25.34C142.62 25.34 143.48 24.78 143.93 23.79L147.57 23.79C146.73 26.71 144.3 28.28 140.99 28.28C136.99 28.28 134.05 25.28 134.05 21C134.05 16.71 136.99 13.72 140.99 13.72C145 13.72 147.94 16.71 147.94 21ZM154.25 17.8C154.25 20.49 162.48 18.2 162.48 23.96C162.48 26.62 160.04 28.28 156.77 28.28C153.27 28.28 150.61 26.48 150.61 23.38L154.11 23.38C154.11 24.89 155.25 25.64 156.77 25.64C158.17 25.64 159.01 25.14 159.01 24.1C159.01 21.14 150.86 23.65 150.86 17.94C150.86 15.34 153.24 13.72 156.35 13.72C159.71 13.72 162.23 15.79 162.23 18.45L158.73 18.45C158.73 17.27 157.72 16.37 156.35 16.37C155.09 16.37 154.25 16.91 154.25 17.8ZM168.92 17.8C168.92 20.49 177.15 18.2 177.15 23.96C177.15 26.62 174.71 28.28 171.44 28.28C167.94 28.28 165.28 26.48 165.28 23.38L168.78 23.38C168.78 24.89 169.92 25.64 171.44 25.64C172.84 25.64 173.68 25.14 173.68 24.1C173.68 21.14 165.53 23.65 165.53 17.94C165.53 15.34 167.91 13.72 171.02 13.72C174.38 13.72 176.9 15.79 176.9 18.45L173.4 18.45C173.4 17.27 172.39 16.37 171.02 16.37C169.76 16.37 168.92 16.91 168.92 17.8ZM197.19 14L200.55 14L200.55 16.26C201.56 14.61 203.21 13.72 205.26 13.72C205.51 13.72 205.79 13.72 205.96 13.77L205.96 17.44C205.57 17.3 205.06 17.21 204.5 17.21C202.01 17.21 200.55 18.5 200.55 20.86L200.55 28L197.19 28L197.19 14ZM222.07 21C222.07 25.28 219.02 28.28 214.93 28.28C210.85 28.28 207.79 25.28 207.79 21C207.79 16.71 210.85 13.72 214.93 13.72C219.02 13.72 222.07 16.71 222.07 21ZM82.42 14L77.13 29.45C75.96 32.9 74.44 35.28 70.89 35.28C70.08 35.28 69.26 35.14 68.73 34.97L68.73 32C69.26 32.17 69.91 32.31 70.58 32.31C72.15 32.31 73.13 31.38 73.94 29.42L68.68 14L72.04 14L75.54 24.78L79.07 14L82.42 14ZM102.15 14L102.15 28L98.79 28L98.79 14L102.15 14ZM144.6 19.74C144.24 17.78 142.95 16.65 140.99 16.65C139.03 16.65 137.74 17.78 137.38 19.74L144.6 19.74ZM211.15 21C211.15 23.52 212.78 25.2 214.93 25.2C217.09 25.2 218.71 23.52 218.71 21C218.71 18.48 217.09 16.79 214.93 16.79C212.78 16.79 211.15 18.48 211.15 21Z" fill="#000000" fill-opacity="1.000000" fill-rule="evenodd"/>
	<path id="Left Triangle" d="M3.68 28.45C1.54 29.69 0 28.66 0 26.82C0 24.87 0 19 0 19C0 19 0 13.13 0 11.17C0 9.33 1.54 8.3 3.68 9.54C7.03 11.47 17.06 17.26 17.06 17.26C18.39 18.03 18.39 19.96 17.06 20.73C17.06 20.73 7.03 26.52 3.68 28.45Z" fill="#00C1FF" fill-opacity="1.000000" fill-rule="nonzero"/>
	<path id="Right Triangle" d="M14.72 28.45C12.58 29.69 11.03 28.66 11.03 26.82C11.03 24.86 11.03 18.99 11.03 18.99C11.03 18.99 11.03 13.12 11.03 11.17C11.03 9.33 12.57 8.3 14.72 9.54C17.99 11.43 27.8 17.09 27.8 17.09C29.26 17.94 29.26 20.05 27.8 20.9C27.8 20.9 17.99 26.56 14.72 28.45Z" fill="#BCEC30" fill-opacity="1.000000" fill-rule="nonzero"/>
	<mask id="mask38_1244" mask-type="alpha" maskUnits="userSpaceOnUse" x="11.038086" y="9.000000" width="17.864746" height="19.999146">
		<path id="Mask" d="M14.72 28.45C12.58 29.69 11.03 28.66 11.03 26.82C11.03 24.86 11.03 18.99 11.03 18.99C11.03 18.99 11.03 13.12 11.03 11.17C11.03 9.33 12.57 8.3 14.72 9.54C17.99 11.43 27.8 17.09 27.8 17.09C29.26 17.94 29.26 20.05 27.8 20.9C27.8 20.9 17.99 26.56 14.72 28.45Z" fill="#6FE4FF" fill-opacity="1.000000" fill-rule="nonzero"/>
	</mask>
	<g mask="url(#mask38_1244)">
		<g filter="url(#filter_38_1245_dd)">
			<path id="Blur" d="M3.68 28.45C1.54 29.69 0 28.66 0 26.82C0 24.87 0 19 0 19C0 19 0 13.13 0 11.17C0 9.33 1.54 8.3 3.68 9.54C7.03 11.47 17.06 17.26 17.06 17.26C18.39 18.03 18.39 19.96 17.06 20.73C17.06 20.73 7.03 26.52 3.68 28.45Z" fill="#99D100" fill-opacity="1.000000" fill-rule="nonzero"/>
		</g>
	</g>
</svg>
