<svg width="26.000000" height="26.000000" viewBox="0 0 26 26" fill="none" xmlns="http://www.w3.org/2000/svg" xmlns:xlink="http://www.w3.org/1999/xlink">
	<desc>
			Created with Pixso.
	</desc>
	<defs/>
	<rect id="Sparcle" rx="-0.500000" width="25.000000" height="25.000000" transform="translate(0.500000 0.500000)" fill="#FFFFFF" fill-opacity="0"/>
	<path id="Icon" d="M12.46 4.36C12.62 3.7 12.69 3.37 12.82 3.29C12.93 3.23 13.06 3.23 13.17 3.29C13.3 3.37 13.37 3.7 13.53 4.36L14.29 7.6C14.58 8.8 14.72 9.4 15.03 9.89C15.3 10.32 15.67 10.69 16.1 10.96C16.59 11.27 17.19 11.41 18.39 11.7L21.63 12.46C22.29 12.62 22.62 12.69 22.7 12.82C22.76 12.93 22.76 13.06 22.7 13.17C22.62 13.3 22.29 13.37 21.63 13.53L18.39 14.29C17.19 14.58 16.59 14.72 16.1 15.03C15.67 15.3 15.3 15.67 15.03 16.1C14.72 16.59 14.58 17.19 14.29 18.39L13.53 21.63C13.37 22.29 13.3 22.62 13.17 22.7C13.06 22.76 12.93 22.76 12.82 22.7C12.69 22.62 12.62 22.29 12.46 21.63L11.7 18.39C11.41 17.19 11.27 16.59 10.96 16.1C10.69 15.67 10.32 15.3 9.89 15.03C9.4 14.72 8.8 14.58 7.6 14.29L4.36 13.53C3.7 13.37 3.37 13.3 3.29 13.17C3.23 13.06 3.23 12.93 3.29 12.82C3.37 12.69 3.7 12.62 4.36 12.46L7.6 11.7C8.8 11.41 9.4 11.27 9.89 10.96C10.32 10.69 10.69 10.32 10.96 9.89C11.27 9.4 11.41 8.8 11.7 7.6L12.46 4.36Z" fill="#000000" fill-opacity="1.000000" fill-rule="nonzero"/>
</svg>
