<svg width="223" height="36" viewBox="0 0 223 36" fill="none" xmlns="http://www.w3.org/2000/svg">
<path d="M39.6828 12.0117C39.6828 14.7837 41.1108 16.4357 42.9588 17.7517L45.3388 19.4597C46.5988 20.3557 47.5228 21.3917 47.5228 22.9597C47.5228 24.3597 46.5988 25.1997 45.1428 25.1997C43.7148 25.1997 42.7628 24.1637 42.7628 22.4837V20.9997H39.4028V22.6797C39.4028 26.2917 41.9788 28.2797 45.1428 28.2797C48.3068 28.2797 50.8828 26.3757 50.8828 22.5397C50.8828 19.8517 49.3988 18.1997 47.5788 16.8837L45.1148 15.1197C43.9388 14.2797 43.0428 13.4117 43.0428 12.0117C43.0428 10.5837 43.8828 9.79973 45.1148 9.79973C46.4308 9.79973 47.2428 10.6117 47.2428 12.4037V13.7197H50.6028V12.3197C50.6028 8.53973 48.1668 6.71973 45.1148 6.71973C42.1188 6.71973 39.6828 8.23173 39.6828 12.0117Z" fill="black"/>
<path d="M57.7527 6.99973H54.3927V27.9997H57.7527V20.6357L63.7727 27.9997H67.9727L61.4487 20.3557L67.6087 13.9997H63.1847L57.7527 20.1037V6.99973Z" fill="black"/>
<path d="M77.4207 29.4557L82.7127 13.9997H79.3527L75.8247 24.7797L72.3247 13.9997H68.9647L74.2287 29.4277C73.4167 31.3877 72.4367 32.3117 70.8687 32.3117C70.1967 32.3117 69.5527 32.1717 69.0207 32.0037V34.9717C69.5527 35.1397 70.3647 35.2797 71.1767 35.2797C74.7327 35.2797 76.2447 32.8997 77.4207 29.4557Z" fill="black"/>
<path d="M89.7321 27.9997V19.3197H95.1641V16.2397H89.7321V10.0797H96.0041V6.99973H86.3721V27.9997H89.7321Z" fill="black"/>
<path d="M100.753 11.1997C101.985 11.1997 102.853 10.2757 102.853 9.09973C102.853 7.89573 101.985 6.99973 100.753 6.99973C99.5487 6.99973 98.6527 7.89573 98.6527 9.09973C98.6527 10.2757 99.5487 11.1997 100.753 11.1997ZM102.433 27.9997V13.9997H99.0727V27.9997H102.433Z" fill="black"/>
<path d="M111.106 23.2117V16.9397H114.746V13.9997H111.106V9.79973H107.746V13.9997H105.506V16.9397H107.746V23.4357C107.746 27.1877 109.762 28.2797 112.534 28.2797C113.346 28.2797 114.242 28.1117 114.746 27.9437V24.9477C114.27 25.1157 113.682 25.1997 113.206 25.1997C111.75 25.1997 111.106 24.5837 111.106 23.2117Z" fill="black"/>
<path d="M127.616 20.2997V27.9997H130.976V19.6277C130.976 15.6797 128.736 13.7197 125.768 13.7197C124.032 13.7197 122.604 14.5317 121.736 16.0157V13.9997H118.376V27.9997H121.736V20.2997C121.736 17.9477 122.856 16.6597 124.676 16.6597C126.496 16.6597 127.616 17.9477 127.616 20.2997Z" fill="black"/>
<path d="M148.167 22.1197C148.195 21.7557 148.223 21.3917 148.223 20.9997C148.223 16.7157 145.283 13.7197 141.279 13.7197C137.275 13.7197 134.335 16.7157 134.335 20.9997C134.335 25.2837 137.275 28.2797 141.279 28.2797C144.583 28.2797 147.019 26.7117 147.859 23.7997H144.219C143.771 24.7797 142.903 25.3397 141.419 25.3397C139.347 25.3397 138.003 24.1637 137.639 22.1197H148.167ZM141.279 16.6597C143.239 16.6597 144.527 17.7797 144.891 19.7397H137.667C138.031 17.7797 139.319 16.6597 141.279 16.6597Z" fill="black"/>
<path d="M162.767 23.9677C162.767 18.1997 154.535 20.4957 154.535 17.8077C154.535 16.9117 155.375 16.3797 156.635 16.3797C158.007 16.3797 159.015 17.2757 159.015 18.4517H162.515C162.515 15.7917 159.995 13.7197 156.635 13.7197C153.527 13.7197 151.147 15.3437 151.147 17.9477C151.147 23.6597 159.295 21.1397 159.295 24.1077C159.295 25.1437 158.455 25.6477 157.055 25.6477C155.543 25.6477 154.395 24.8917 154.395 23.3797H150.895C150.895 26.4877 153.555 28.2797 157.055 28.2797C160.331 28.2797 162.767 26.6277 162.767 23.9677Z" fill="black"/>
<path d="M177.436 23.9677C177.436 18.1997 169.204 20.4957 169.204 17.8077C169.204 16.9117 170.044 16.3797 171.304 16.3797C172.676 16.3797 173.684 17.2757 173.684 18.4517H177.184C177.184 15.7917 174.664 13.7197 171.304 13.7197C168.196 13.7197 165.816 15.3437 165.816 17.9477C165.816 23.6597 173.964 21.1397 173.964 24.1077C173.964 25.1437 173.124 25.6477 171.724 25.6477C170.212 25.6477 169.064 24.8917 169.064 23.3797H165.564C165.564 26.4877 168.224 28.2797 171.724 28.2797C175 28.2797 177.436 26.6277 177.436 23.9677Z" fill="black"/>
<path d="M185.433 27.9997V20.1597H188.205C191.649 20.1597 194.113 18.0317 194.113 14.1397V12.7397C194.113 8.98773 191.649 6.99973 188.205 6.99973H182.073V27.9997H185.433ZM187.925 10.0797C189.661 10.0797 190.753 10.8917 190.753 13.0197V13.8597C190.753 16.1557 189.661 17.0797 187.925 17.0797H185.433V10.0797H187.925Z" fill="black"/>
<path d="M200.841 13.9997H197.481V27.9997H200.841V20.8597C200.841 18.5077 202.297 17.2197 204.789 17.2197C205.349 17.2197 205.853 17.3037 206.245 17.4437V13.7757C206.077 13.7197 205.797 13.7197 205.545 13.7197C203.501 13.7197 201.849 14.6157 200.841 16.2677V13.9997Z" fill="black"/>
<path d="M215.22 28.2797C219.308 28.2797 222.36 25.2837 222.36 20.9997C222.36 16.7157 219.308 13.7197 215.22 13.7197C211.132 13.7197 208.08 16.7157 208.08 20.9997C208.08 25.2837 211.132 28.2797 215.22 28.2797ZM215.22 25.1997C213.064 25.1997 211.44 23.5197 211.44 20.9997C211.44 18.4797 213.064 16.7997 215.22 16.7997C217.376 16.7997 219 18.4797 219 20.9997C219 23.5197 217.376 25.1997 215.22 25.1997Z" fill="black"/>
<path d="M4.18844 28.4584C2.04195 29.6982 0.5 28.665 0.5 26.8272C0.5 24.8708 0.5 19.0006 0.5 19.0006C0.5 19.0006 0.5 13.1304 0.5 11.1739C0.5 9.33615 2.04099 8.30294 4.18844 9.5428C7.53156 11.4734 17.56 17.2671 17.56 17.2671C18.8934 18.0372 18.8934 19.963 17.56 20.7331C17.56 20.7341 7.53156 26.5278 4.18844 28.4584Z" fill="#00C1FF"/>
<path d="M15.2265 28.4574C13.08 29.6972 11.538 28.664 11.538 26.8262C11.538 24.8698 11.538 18.9996 11.538 18.9996C11.538 18.9996 11.538 13.1294 11.538 11.173C11.538 9.33518 13.079 8.30196 15.2265 9.54182C18.4959 11.4303 28.3043 17.0968 28.3043 17.0968C29.7688 17.9425 29.7688 20.0567 28.3043 20.9024C28.3034 20.9024 18.4959 26.5689 15.2265 28.4574Z" fill="#BCEC30"/>
<mask id="mask0_51_704" style="mask-type:alpha" maskUnits="userSpaceOnUse" x="11" y="9" width="19" height="20">
<path d="M15.2265 28.4574C13.08 29.6972 11.538 28.664 11.538 26.8262C11.538 24.8698 11.538 18.9996 11.538 18.9996C11.538 18.9996 11.538 13.1294 11.538 11.173C11.538 9.33518 13.079 8.30196 15.2265 9.54182C18.4959 11.4303 28.3043 17.0968 28.3043 17.0968C29.7688 17.9425 29.7688 20.0567 28.3043 20.9024C28.3034 20.9024 18.4959 26.5689 15.2265 28.4574Z" fill="#6FE4FF"/>
</mask>
<g mask="url(#mask0_51_704)">
<g filter="url(#filter0_f_51_704)">
<path d="M4.18893 28.4584C2.04244 29.6982 0.500488 28.665 0.500488 26.8272C0.500488 24.8708 0.500488 19.0006 0.500488 19.0006C0.500488 19.0006 0.500488 13.1304 0.500488 11.1739C0.500488 9.33615 2.04148 8.30294 4.18893 9.5428C7.53205 11.4734 17.5605 17.2671 17.5605 17.2671C18.8939 18.0372 18.8939 19.963 17.5605 20.7331C17.5605 20.7341 7.53205 26.5278 4.18893 28.4584Z" fill="#99D100"/>
</g>
</g>
<defs>
<filter id="filter0_f_51_704" x="-0.960753" y="7.53973" width="20.9825" height="22.9215" filterUnits="userSpaceOnUse" color-interpolation-filters="sRGB">
<feFlood flood-opacity="0" result="BackgroundImageFix"/>
<feBlend mode="normal" in="SourceGraphic" in2="BackgroundImageFix" result="shape"/>
<feGaussianBlur stdDeviation="0.730621" result="effect1_foregroundBlur_51_704"/>
</filter>
</defs>
</svg>
